<svg width="1440" height="199" viewBox="0 0 1440 199" fill="none" xmlns="http://www.w3.org/2000/svg">
<path d="M84.1896 198.58C71.417 198.58 61.089 188.224 61.089 175.479V23.3613C61.089 10.5887 71.4444 0.260742 84.1896 0.260742C96.9622 0.260742 107.29 10.6162 107.29 23.3613V175.479C107.318 188.224 96.9622 198.58 84.1896 198.58Z" fill="#353535"/>
<path d="M145.306 198.58C132.533 198.58 122.205 188.224 122.205 175.479V23.3613C122.205 10.5887 132.561 0.260742 145.306 0.260742C158.078 0.260742 168.406 10.6162 168.406 23.3613V175.479C168.406 188.224 158.051 198.58 145.306 198.58Z" fill="#353535"/>
<path d="M23.1006 198.581C10.328 198.581 0 188.226 0 175.481V23.3628C0 10.5901 10.3555 0.262207 23.1006 0.262207C35.8732 0.262207 46.2012 10.6176 46.2012 23.3628V175.481C46.2012 188.226 35.8458 198.581 23.1006 198.581Z" fill="#353535"/>
<path d="M122.205 175.452C122.205 162.68 132.561 152.352 145.306 152.352H235.236C248.009 152.352 258.337 162.707 258.337 175.452C258.337 188.225 247.981 198.553 235.236 198.553H145.306C132.533 198.58 122.205 188.225 122.205 175.452Z" fill="url(#paint0_linear_1387_62491)"/>
<path d="M845.108 198.58C832.363 198.58 822.035 188.252 822.035 175.507V23.3341C822.035 10.5889 832.363 0.260986 845.108 0.260986C857.854 0.260986 868.182 10.5889 868.182 23.3341V175.507C868.182 188.252 857.854 198.58 845.108 198.58Z" fill="#353535"/>
<path d="M822.035 175.425C822.035 162.652 832.391 152.324 845.136 152.324H929.82C942.592 152.324 952.92 162.68 952.92 175.425C952.92 188.198 942.565 198.526 929.82 198.526H845.136C832.391 198.526 822.035 188.17 822.035 175.425Z" fill="url(#paint1_linear_1387_62491)"/>
<path d="M534.363 22.4009V176.469C534.363 186.275 526.424 194.186 516.646 194.186C506.867 194.186 498.929 186.275 498.929 176.469V63.7678L452.48 110.216C445.586 117.111 434.352 117.111 427.43 110.216L382.41 65.1961V176.469C382.41 186.275 374.471 194.186 364.693 194.186C354.914 194.186 346.976 186.275 346.976 176.469V22.4009C346.976 21.8241 347.003 21.2748 347.058 20.6979C347.113 20.1486 347.196 19.5717 347.305 19.0224C347.415 18.473 347.553 17.9237 347.717 17.3743C347.827 16.9897 347.937 16.6327 348.102 16.2756C348.569 14.9571 349.201 13.6936 349.997 12.5124C350.629 11.5785 351.343 10.727 352.167 9.90299C352.991 9.07895 353.87 8.36477 354.804 7.70554C354.859 7.70554 354.887 7.65061 354.942 7.62314C355.436 7.32099 355.93 7.01886 356.452 6.74418C356.974 6.4695 357.496 6.22228 358.018 6.00254C358.045 6.00254 358.045 6.00254 358.045 6.00254C362.33 4.27205 367.11 4.27205 371.367 6.00254C371.889 6.22228 372.411 6.4695 372.933 6.74418C373.455 7.01886 373.949 7.32099 374.444 7.62314C374.499 7.65061 374.526 7.70554 374.581 7.70554C375.515 8.36477 376.394 9.07895 377.218 9.90299L377.493 10.1777L439.955 72.6125L501.346 11.2489C503.159 9.43605 505.301 8.0901 507.554 7.23859C510.218 5.59051 513.322 4.68408 516.646 4.68408C526.424 4.68408 534.363 12.6223 534.363 22.4009Z" fill="#353535" stroke="#353535" stroke-width="8.78977" stroke-miterlimit="10"/>
<path d="M349.997 12.5125C350.629 11.5786 351.343 10.6996 352.167 9.90308C351.343 10.7271 350.629 11.5786 349.997 12.5125Z" fill="#353535" stroke="#353535" stroke-width="8.78977" stroke-miterlimit="10"/>
<path d="M352.167 9.90253C352.936 9.07849 353.843 8.36431 354.804 7.70508C353.87 8.36431 352.991 9.07849 352.167 9.90253Z" fill="#353535" stroke="#353535" stroke-width="8.78977" stroke-miterlimit="10"/>
<path d="M364.693 4.68408C367.055 4.68408 369.308 5.15103 371.368 6.00254C367.11 4.27205 362.331 4.27205 358.046 6.00254C360.106 5.15103 362.331 4.68408 364.693 4.68408Z" fill="#353535" stroke="#353535" stroke-width="8.78977" stroke-miterlimit="10"/>
<path d="M377.218 9.90253C376.394 9.07849 375.515 8.36431 374.581 7.70508C375.543 8.36431 376.449 9.07849 377.218 9.90253Z" fill="#353535" stroke="#353535" stroke-width="8.78977" stroke-miterlimit="10"/>
<path d="M712.905 4.79283C712.52 4.76537 712.136 4.76538 711.751 4.76538H642.614C632.836 4.76538 624.897 12.7036 624.897 22.4822V176.55C624.897 186.356 632.836 194.267 642.614 194.267H712.85C763.281 193.69 801.187 153.148 801.187 99.53C801.187 45.9125 763.309 5.39713 712.905 4.79283ZM711.751 158.861H660.331V40.1991H711.751C743.037 40.1991 765.753 65.1401 765.753 99.53C765.753 133.893 743.037 158.861 711.751 158.861Z" fill="#353535" stroke="#353535" stroke-width="8.78977" stroke-miterlimit="10"/>
<path d="M1435.97 165.316C1442.18 172.897 1441.08 184.049 1433.53 190.257C1430.23 192.949 1426.25 194.267 1422.29 194.267C1417.18 194.267 1412.1 192.07 1408.59 187.785L1352.91 119.939L1331.32 142.325V176.55C1331.32 186.329 1323.38 194.267 1313.6 194.267C1303.82 194.267 1295.89 186.329 1295.89 176.55V22.4822C1295.89 12.7036 1303.82 4.76538 1313.6 4.76538C1323.38 4.76538 1331.32 12.7036 1331.32 22.4822V91.3171L1347.06 75.0011L1409.55 10.1766C1416.33 3.14477 1427.54 2.95248 1434.57 9.73708C1441.63 16.5217 1441.82 27.7286 1435.04 34.7879L1383.48 88.2407L1377.66 94.2836L1435.97 165.316Z" fill="url(#paint2_linear_1387_62491)"/>
<path d="M579.575 198.58C566.802 198.58 556.474 188.225 556.474 175.479V23.3616C556.474 10.5889 566.83 0.260986 579.575 0.260986C592.348 0.260986 602.676 10.6164 602.676 23.3616V175.479C602.676 188.225 592.348 198.58 579.575 198.58Z" fill="#353535"/>
<path d="M1272.4 23.4989V175.589C1272.4 175.589 1272.4 175.617 1272.4 175.644C1272.4 176.386 1272.37 177.1 1272.29 177.842C1272.24 178.583 1272.13 179.325 1271.96 180.039C1271.85 180.698 1271.69 181.33 1271.49 181.962C1271.14 183.28 1270.64 184.571 1270.01 185.835C1269.74 186.412 1269.43 186.961 1269.1 187.483C1269.08 187.538 1269.05 187.593 1268.99 187.648C1268.83 187.95 1268.64 188.225 1268.45 188.527C1268.42 188.582 1268.39 188.609 1268.36 188.664C1268.01 189.186 1267.62 189.68 1267.24 190.175C1267.18 190.23 1267.13 190.312 1267.07 190.367C1266.71 190.807 1266.36 191.219 1265.95 191.603C1265.86 191.713 1265.75 191.823 1265.62 191.933C1265.48 192.07 1265.31 192.208 1265.18 192.372C1264.79 192.757 1264.38 193.114 1263.97 193.444C1263.91 193.498 1263.83 193.581 1263.75 193.636C1263.25 194.048 1262.73 194.405 1262.21 194.762C1262.02 194.899 1261.85 195.009 1261.66 195.119C1261.33 195.339 1261 195.531 1260.67 195.696C1260.56 195.806 1260.42 195.861 1260.29 195.916C1260.04 196.053 1259.79 196.19 1259.52 196.328C1258.94 196.602 1258.36 196.877 1257.79 197.097C1257.24 197.317 1256.72 197.509 1256.17 197.674C1255.97 197.729 1255.81 197.783 1255.65 197.838C1255.1 198.003 1254.52 198.141 1253.94 198.25C1253.78 198.278 1253.61 198.305 1253.42 198.333C1252.79 198.47 1252.13 198.553 1251.47 198.608C1250.76 198.69 1250.04 198.717 1249.3 198.717C1249.3 198.717 1249.27 198.717 1249.25 198.717C1248.5 198.717 1247.79 198.69 1247.05 198.608C1246.31 198.553 1245.56 198.443 1244.85 198.278C1244.19 198.168 1243.56 198.003 1242.93 197.811C1241.61 197.454 1240.32 196.959 1239.05 196.328C1238.48 196.053 1237.93 195.751 1237.41 195.421C1237.35 195.394 1237.3 195.366 1237.24 195.311C1236.94 195.147 1236.66 194.954 1236.36 194.762C1236.31 194.735 1236.28 194.707 1236.23 194.68C1235.7 194.323 1235.21 193.938 1234.71 193.553C1234.66 193.498 1234.58 193.444 1234.52 193.389C1234.08 193.032 1233.67 192.674 1233.29 192.262C1233.18 192.18 1233.07 192.07 1232.96 191.933L1232.65 191.631L1230.62 189.241L1142.67 86.0985V175.589C1142.67 188.362 1132.31 198.717 1119.54 198.717C1106.8 198.717 1096.44 188.362 1096.44 175.589V23.4989C1096.44 22.7573 1096.47 22.0156 1096.55 21.274C1096.61 20.5324 1096.72 19.7907 1096.88 19.0491C1097.02 18.3349 1097.18 17.5933 1097.4 16.8791C1097.43 16.7967 1097.46 16.6869 1097.48 16.6045C1097.65 16.0551 1097.84 15.5332 1098.06 14.9839C1098.12 14.819 1098.2 14.6542 1098.25 14.4894C1098.45 14.0225 1098.67 13.5555 1098.91 13.0886C1099.02 12.8688 1099.13 12.6765 1099.24 12.4843C1099.24 12.4293 1099.27 12.4018 1099.32 12.3469C1099.6 11.825 1099.9 11.3031 1100.26 10.7813C1100.29 10.6988 1100.34 10.6439 1100.4 10.5615C1100.78 10.0121 1101.17 9.46276 1101.63 8.9134C1101.66 8.85847 1101.71 8.77609 1101.77 8.72115C1102.13 8.30913 1102.48 7.86961 1102.9 7.48506C1102.98 7.37518 1103.09 7.26533 1103.23 7.15545C1103.36 7.01811 1103.53 6.88076 1103.66 6.71595C1103.94 6.44127 1104.21 6.19409 1104.52 5.97435C1104.63 5.83701 1104.74 5.72713 1104.87 5.6722C1105.07 5.50739 1105.26 5.34256 1105.48 5.17775L1106.71 4.2713C1106.99 4.10649 1107.29 3.91421 1107.57 3.7494C1107.89 3.52966 1108.22 3.33741 1108.55 3.1726C1108.86 3.00779 1109.21 2.84296 1109.54 2.67815C1109.87 2.48588 1110.2 2.32107 1110.56 2.2112C1110.92 2.07386 1111.25 1.93654 1111.6 1.7992C1112.29 1.55199 1112.98 1.33223 1113.69 1.13995L1113.97 1.05755C1114.65 0.92021 1115.34 0.782872 1116.03 0.672999C1116.41 0.590595 1116.79 0.535666 1117.18 0.508198C1117.51 0.48073 1117.81 0.45325 1118.14 0.45325L1118.53 0.425797C1118.85 0.370861 1119.21 0.37085 1119.54 0.37085C1119.9 0.37085 1120.23 0.370861 1120.59 0.425797H1120.89C1121.24 0.453265 1121.57 0.48073 1121.9 0.508198C1122.29 0.535666 1122.67 0.590595 1123.06 0.672999C1123.44 0.727935 1123.83 0.782892 1124.18 0.865296C1124.65 0.9477 1125.12 1.05756 1125.56 1.1949C1126.22 1.35971 1126.85 1.57945 1127.48 1.7992C1128.19 2.04641 1128.88 2.34854 1129.57 2.67815C1130.58 3.17258 1131.54 3.72195 1132.48 4.32625C1132.86 4.60093 1133.25 4.8756 1133.63 5.17775C1133.99 5.45243 1134.35 5.72713 1134.68 6.05675C1134.98 6.24903 1135.28 6.5237 1135.56 6.82585C1135.66 6.90825 1135.77 7.01811 1135.88 7.15545C1135.99 7.26533 1136.08 7.34773 1136.19 7.4576L1138.22 9.84731L1226.17 112.99V23.4989C1226.17 10.7263 1236.53 0.398303 1249.3 0.398303C1255.67 0.398303 1261.44 2.98031 1265.62 7.15545C1269.82 11.3306 1272.4 17.0989 1272.4 23.4989Z" fill="url(#paint3_linear_1387_62491)"/>
<path d="M1078.28 36.9587L1015.77 122.769C1015.79 122.961 1015.79 123.181 1015.79 123.373V175.397C1015.79 188.17 1005.44 198.498 992.694 198.498C979.922 198.498 969.566 188.17 969.566 175.397V123.373C969.566 123.153 969.566 122.934 969.594 122.714L907.076 36.9587C899.578 26.6307 901.858 12.1825 912.158 4.68373C916.278 1.68972 921.03 0.233887 925.755 0.233887C932.896 0.233887 939.928 3.53007 944.433 9.73784L992.694 75.9632L1040.93 9.73784C1048.45 -0.562667 1062.9 -2.8425 1073.2 4.68373C1079.41 9.18849 1082.71 16.2203 1082.71 23.362C1082.71 28.0865 1081.28 32.8385 1078.28 36.9587Z" fill="url(#paint4_linear_1387_62491)"/>
<defs>
<linearGradient id="paint0_linear_1387_62491" x1="258.338" y1="175.463" x2="122.197" y2="175.463" gradientUnits="userSpaceOnUse">
<stop offset="3.40978e-07" stop-color="#8F00FF"/>
<stop offset="0.1405" stop-color="#8701F0"/>
<stop offset="0.4093" stop-color="#7002CA"/>
<stop offset="0.7753" stop-color="#4D048C"/>
<stop offset="1" stop-color="#350663"/>
</linearGradient>
<linearGradient id="paint1_linear_1387_62491" x1="952.941" y1="175.412" x2="822.039" y2="175.412" gradientUnits="userSpaceOnUse">
<stop offset="3.40978e-07" stop-color="#8F00FF"/>
<stop offset="0.1405" stop-color="#8701F0"/>
<stop offset="0.4093" stop-color="#7002CA"/>
<stop offset="0.7753" stop-color="#4D048C"/>
<stop offset="1" stop-color="#350663"/>
</linearGradient>
<linearGradient id="paint2_linear_1387_62491" x1="1439.99" y1="99.5265" x2="1295.88" y2="99.5265" gradientUnits="userSpaceOnUse">
<stop offset="3.40978e-07" stop-color="#8F00FF"/>
<stop offset="0.1405" stop-color="#8701F0"/>
<stop offset="0.4093" stop-color="#7002CA"/>
<stop offset="0.7753" stop-color="#4D048C"/>
<stop offset="1" stop-color="#350663"/>
</linearGradient>
<linearGradient id="paint3_linear_1387_62491" x1="1272.39" y1="99.532" x2="1096.43" y2="99.532" gradientUnits="userSpaceOnUse">
<stop offset="3.40978e-07" stop-color="#8F00FF"/>
<stop offset="0.1405" stop-color="#8701F0"/>
<stop offset="0.4093" stop-color="#7002CA"/>
<stop offset="0.7753" stop-color="#4D048C"/>
<stop offset="1" stop-color="#350663"/>
</linearGradient>
<linearGradient id="paint4_linear_1387_62491" x1="1082.7" y1="99.378" x2="902.653" y2="99.378" gradientUnits="userSpaceOnUse">
<stop offset="3.40978e-07" stop-color="#8F00FF"/>
<stop offset="0.1405" stop-color="#8701F0"/>
<stop offset="0.4093" stop-color="#7002CA"/>
<stop offset="0.7753" stop-color="#4D048C"/>
<stop offset="1" stop-color="#350663"/>
</linearGradient>
</defs>
</svg>
