<svg width="124" height="32" viewBox="0 0 124 32" fill="none" xmlns="http://www.w3.org/2000/svg">
<path d="M14.2532 28C12.6999 28 11.4404 26.7482 11.4404 25.2045V6.79547C11.4404 5.25174 12.6999 4 14.2532 4C15.8065 4 17.0659 5.25174 17.0659 6.79547V25.2045C17.0688 26.7453 15.8065 28 14.2532 28Z" fill="#7200CB"/>
<path d="M21.6941 28C20.1408 28 18.8813 26.7482 18.8813 25.2045V6.79547C18.8813 5.25174 20.1408 4 21.6941 4C23.2474 4 24.5069 5.25174 24.5069 6.79547V25.2045C24.5098 26.7453 23.2503 28 21.6941 28Z" fill="#7200CB"/>
<path d="M6.81275 28C5.25948 28 4 26.7482 4 25.2045V6.79547C4 5.25174 5.25948 4 6.81275 4C8.36602 4 9.62551 5.25174 9.62551 6.79547V25.2045C9.62551 26.7453 8.36602 28 6.81275 28Z" fill="#7200CB"/>
<path d="M18.8813 25.2016C18.8813 23.6579 20.1408 22.4061 21.6941 22.4061H32.6455C34.1988 22.4061 35.4583 23.6579 35.4583 25.2016C35.4583 26.7453 34.1988 27.9971 32.6455 27.9971H21.6941C20.1408 28 18.8813 26.7453 18.8813 25.2016Z" fill="#8F00FF"/>
<path d="M79.43 22.7836C78.5618 22.7836 77.8564 22.0774 77.8564 21.2045V10.7903C77.8564 9.91909 78.5601 9.2113 79.43 9.2113C80.2981 9.2113 81.0034 9.91746 81.0034 10.7903V21.2045C81.0034 22.0758 80.2998 22.7836 79.43 22.7836Z" fill="#353535"/>
<path d="M77.8564 21.198C77.8564 20.3251 78.5618 19.6157 79.4332 19.6157H85.2076C86.0774 19.6157 86.7844 20.3235 86.7844 21.198C86.7844 22.0709 86.079 22.7804 85.2076 22.7804H79.4332C78.5618 22.7804 77.8564 22.0726 77.8564 21.198Z" fill="#8F00FF"/>
<path d="M58.2382 10.7266V21.2699C58.2382 21.9417 57.6974 22.4828 57.0296 22.4828C56.3617 22.4828 55.821 21.9417 55.821 21.2699V13.5578L52.6544 16.7355C52.1837 17.2079 51.4181 17.2079 50.9457 16.7355L47.8753 13.6542V21.2683C47.8753 21.9401 47.3345 22.4812 46.6666 22.4812C45.9988 22.4812 45.458 21.9401 45.458 21.2683V10.725C45.458 10.6857 45.4596 10.6481 45.4629 10.6089C45.4662 10.5713 45.4727 10.5321 45.4792 10.4945C45.4873 10.4569 45.4955 10.4193 45.5069 10.3817C45.515 10.3555 45.5215 10.331 45.5329 10.3065C45.5655 10.2166 45.6079 10.13 45.6616 10.0482C45.704 9.98449 45.7528 9.92564 45.8098 9.87007C45.8669 9.81449 45.9255 9.76545 45.989 9.71968C45.9923 9.71968 45.9939 9.71641 45.9988 9.71478C46.033 9.69353 46.0656 9.67391 46.1014 9.6543C46.1372 9.63632 46.1731 9.61833 46.2089 9.60362C46.2105 9.60362 46.2106 9.60362 46.2106 9.60362C46.5021 9.48593 46.8279 9.48593 47.1195 9.60362C47.1553 9.61833 47.1911 9.63632 47.227 9.6543C47.2628 9.67391 47.297 9.69353 47.3296 9.71478C47.3328 9.71641 47.3345 9.71968 47.3394 9.71968C47.4029 9.76545 47.4632 9.81286 47.5185 9.87007L47.5365 9.88805L51.796 14.1609L55.9822 9.96161C56.106 9.83737 56.2526 9.74583 56.4057 9.68699C56.5882 9.5742 56.7999 9.51208 57.0263 9.51208C57.6974 9.51372 58.2382 10.058 58.2382 10.7266Z" fill="#353535" stroke="#353535" stroke-width="0.523079" stroke-miterlimit="10"/>
<path d="M45.6665 10.0499C45.709 9.98613 45.758 9.92565 45.8153 9.8717C45.758 9.92728 45.709 9.98613 45.6665 10.0499Z" fill="#353535" stroke="#353535" stroke-width="0.523079" stroke-miterlimit="10"/>
<path d="M45.8149 9.8717C45.8672 9.81612 45.9294 9.76708 45.9947 9.72131C45.931 9.76545 45.8705 9.81449 45.8149 9.8717Z" fill="#353535" stroke="#353535" stroke-width="0.523079" stroke-miterlimit="10"/>
<path d="M46.6683 9.51367C46.8296 9.51367 46.9827 9.54636 47.1228 9.60358C46.8328 9.48588 46.5071 9.48588 46.2139 9.60358C46.3556 9.54636 46.5071 9.51367 46.6683 9.51367Z" fill="#353535" stroke="#353535" stroke-width="0.523079" stroke-miterlimit="10"/>
<path d="M47.524 9.8717C47.4668 9.81612 47.408 9.76708 47.3442 9.72131C47.408 9.76545 47.4701 9.81449 47.524 9.8717Z" fill="#353535" stroke="#353535" stroke-width="0.523079" stroke-miterlimit="10"/>
<path d="M70.4139 9.52361C70.3878 9.52197 70.3618 9.52197 70.3357 9.52197H65.6217C64.9555 9.52197 64.4131 10.0647 64.4131 10.7349V21.2782C64.4131 21.95 64.9539 22.4911 65.6217 22.4911H70.4106C73.8492 22.4518 76.4342 19.6779 76.4342 16.0082C76.4342 12.3368 73.8525 9.56447 70.4139 9.52361ZM70.3357 20.0669H66.8287V11.9461H70.3357C72.4695 11.9461 74.0186 13.6527 74.0186 16.0065C74.0186 18.3571 72.4695 20.0669 70.3357 20.0669Z" fill="#353535" stroke="#353535" stroke-width="0.523079" stroke-miterlimit="10"/>
<path d="M119.724 20.5083C120.147 21.0264 120.072 21.7898 119.558 22.2148C119.333 22.3995 119.061 22.4894 118.792 22.4894C118.444 22.4894 118.097 22.339 117.857 22.0464L114.06 17.4041L112.588 18.9358V21.2782C112.588 21.9467 112.047 22.4911 111.379 22.4911C110.713 22.4911 110.17 21.9484 110.17 21.2782V10.7349C110.17 10.0663 110.711 9.52197 111.379 9.52197C112.045 9.52197 112.588 10.0647 112.588 10.7349V15.4458L113.661 14.3294L117.922 9.89303C118.385 9.41245 119.149 9.39938 119.629 9.86361C120.111 10.3278 120.125 11.0945 119.662 11.5783L116.147 15.2366L115.749 15.6502L119.724 20.5083Z" fill="#353535"/>
<path d="M61.3232 22.7835C60.4534 22.7835 59.748 22.0757 59.748 21.2028V10.7936C59.748 9.92068 60.4534 9.21289 61.3232 9.21289C62.193 9.21289 62.8983 9.92068 62.8983 10.7936V21.2028C62.8983 22.0741 62.193 22.7835 61.3232 22.7835Z" fill="#353535"/>
<path d="M108.569 10.8018V21.2095C108.569 21.2095 108.569 21.2111 108.569 21.2127C108.569 21.2634 108.568 21.3124 108.561 21.3631C108.558 21.4138 108.55 21.4645 108.538 21.5135C108.53 21.5593 108.519 21.6018 108.506 21.6443C108.481 21.7342 108.447 21.8224 108.405 21.9091C108.385 21.9483 108.366 21.9859 108.343 22.0219C108.341 22.0251 108.339 22.03 108.335 22.0333C108.323 22.0546 108.31 22.0725 108.297 22.0938C108.295 22.0971 108.294 22.0987 108.292 22.1036C108.268 22.1396 108.242 22.1739 108.216 22.2066C108.212 22.2098 108.208 22.2164 108.204 22.2197C108.18 22.2491 108.155 22.2785 108.128 22.3047C108.123 22.3128 108.115 22.3194 108.105 22.3275C108.095 22.3373 108.084 22.3455 108.076 22.357C108.05 22.3831 108.022 22.4076 107.993 22.4305C107.989 22.4338 107.983 22.4403 107.978 22.4436C107.944 22.4714 107.908 22.4959 107.874 22.5204C107.861 22.5302 107.849 22.5368 107.836 22.5449C107.813 22.5597 107.791 22.5727 107.769 22.5842C107.761 22.5923 107.753 22.5956 107.743 22.5989C107.727 22.6087 107.709 22.6185 107.691 22.6267C107.652 22.6447 107.613 22.6643 107.574 22.679C107.536 22.6937 107.501 22.7068 107.463 22.7182C107.45 22.7215 107.439 22.7264 107.427 22.7297C107.39 22.7411 107.351 22.7509 107.312 22.7574C107.3 22.7591 107.289 22.7607 107.276 22.7623C107.233 22.7722 107.188 22.7771 107.142 22.782C107.093 22.7869 107.045 22.7901 106.994 22.7901C106.994 22.7901 106.992 22.7901 106.991 22.7901C106.94 22.7901 106.891 22.7885 106.841 22.782C106.79 22.7787 106.74 22.7705 106.691 22.7591C106.645 22.7509 106.603 22.7395 106.561 22.7264C106.471 22.7019 106.383 22.6675 106.297 22.625C106.258 22.6071 106.22 22.5858 106.184 22.5629C106.181 22.5613 106.176 22.5597 106.173 22.5547C106.152 22.5433 106.134 22.5302 106.113 22.5171C106.11 22.5155 106.108 22.5139 106.103 22.5122C106.067 22.4877 106.033 22.4616 106 22.4354C105.997 22.4321 105.991 22.4272 105.987 22.424C105.958 22.3995 105.929 22.3749 105.903 22.3472C105.895 22.3422 105.888 22.3341 105.88 22.3243L105.859 22.303L105.72 22.1396L99.7227 15.0813V21.2062C99.7227 22.0807 99.0158 22.7885 98.1459 22.7885C97.2761 22.7885 96.5708 22.0791 96.5708 21.2062V10.7985C96.5708 10.7479 96.5724 10.6972 96.5789 10.6465C96.5822 10.5959 96.5903 10.5452 96.6017 10.4945C96.6115 10.4455 96.6229 10.3948 96.6376 10.3458C96.6392 10.3409 96.6408 10.3327 96.6425 10.3278C96.6539 10.2902 96.6669 10.2542 96.6816 10.2166C96.6848 10.2052 96.6913 10.1937 96.6946 10.1823C96.7076 10.1496 96.7223 10.1185 96.7402 10.0859C96.7484 10.0711 96.7549 10.0581 96.763 10.045C96.763 10.0417 96.7646 10.0401 96.7679 10.0352C96.7874 9.99922 96.807 9.96326 96.8314 9.92729C96.8331 9.92239 96.8363 9.91749 96.8412 9.91258C96.8673 9.87499 96.8933 9.83739 96.9259 9.79979C96.9275 9.79653 96.9308 9.78999 96.9357 9.78672C96.9601 9.75893 96.9845 9.72787 97.0122 9.70172C97.0171 9.69355 97.0253 9.68701 97.035 9.67883C97.0448 9.66903 97.0562 9.66085 97.0644 9.64941C97.0823 9.62979 97.1018 9.61345 97.123 9.59874C97.1311 9.58893 97.1377 9.58239 97.1474 9.57749C97.1605 9.56604 97.1735 9.5546 97.1882 9.54316L97.2728 9.48104C97.2908 9.4696 97.3119 9.45652 97.3315 9.44508C97.3543 9.43037 97.3771 9.41729 97.3983 9.40585C97.4195 9.39441 97.4439 9.38297 97.4651 9.37152C97.4879 9.35845 97.5107 9.34701 97.5351 9.33883C97.5595 9.32902 97.5823 9.31922 97.6068 9.31104C97.654 9.2947 97.7013 9.27835 97.7485 9.26527L97.768 9.26037C97.8153 9.25056 97.8609 9.24076 97.9081 9.23422C97.9342 9.22931 97.9602 9.22441 97.9863 9.22277C98.0091 9.22114 98.0287 9.2195 98.0515 9.2195L98.0775 9.21787C98.1003 9.2146 98.1248 9.2146 98.1476 9.2146C98.172 9.2146 98.1948 9.2146 98.2192 9.21787H98.2404C98.2648 9.2195 98.2876 9.22114 98.3104 9.22277C98.3365 9.22441 98.3626 9.22768 98.3886 9.23422C98.4147 9.23749 98.4408 9.24239 98.4652 9.24729C98.4978 9.2522 98.5287 9.26037 98.5597 9.27018C98.6053 9.28162 98.6476 9.29633 98.69 9.31104C98.7388 9.32739 98.7861 9.34864 98.8317 9.37152C98.9017 9.40585 98.9669 9.44345 99.0304 9.48431C99.0565 9.50393 99.0825 9.52191 99.1086 9.54316C99.133 9.56114 99.1575 9.58076 99.1803 9.60364C99.2014 9.61672 99.221 9.63633 99.2405 9.65595C99.2487 9.66085 99.2552 9.66903 99.2633 9.67883C99.2715 9.68701 99.2764 9.69191 99.2845 9.70008L99.423 9.86354L105.421 16.9218V10.7969C105.421 9.92239 106.127 9.21624 106.997 9.21624C107.432 9.21624 107.825 9.39278 108.11 9.67883C108.393 9.96816 108.569 10.3637 108.569 10.8018Z" fill="#353535"/>
<path d="M95.3312 11.7238L91.0684 17.5953C91.07 17.6084 91.07 17.6231 91.07 17.6362V21.1964C91.07 22.0709 90.3631 22.7771 89.4949 22.7771C88.6234 22.7771 87.9181 22.0709 87.9181 21.1964V17.6362C87.9181 17.6215 87.9181 17.6068 87.9198 17.5904L83.657 11.7221C83.1455 11.016 83.3019 10.027 84.0039 9.51376C84.2841 9.30943 84.6083 9.20972 84.9308 9.20972C85.4178 9.20972 85.8967 9.43529 86.2046 9.8603L89.4949 14.3931L92.7836 9.8603C93.2967 9.15577 94.2822 8.99885 94.9842 9.51376C95.4077 9.8227 95.6325 10.3033 95.6325 10.792C95.6325 11.1173 95.5348 11.4426 95.3312 11.7238Z" fill="#353535"/>
</svg>
